<svg xmlns="http://www.w3.org/2000/svg" viewBox="0 0 400 240" width="100%" height="100%">
  <!-- Ground Line / Bench -->
  <line x1="20" y1="210" x2="380" y2="210" stroke="#94A3B8" stroke-width="2" stroke-dasharray="4 4" />

  <!-- Stand -->
  <!-- Base -->
  <rect x="250" y="200" width="80" height="10" fill="#475569" rx="2" />
  <!-- Rod -->
  <rect x="286" y="50" width="8" height="150" fill="#64748B" />
  <!-- Bosshead & Clamp -->
  <rect x="278" y="80" width="16" height="10" fill="#334155" rx="1" />
  <rect x="180" y="83" width="100" height="4" fill="#475569" />
  <path d="M 175 75 L 180 85 L 175 95" fill="none" stroke="#334155" stroke-width="2" />

  <!-- Test Tube -->
  <!-- Liquid (Blue Copper Sulphate Solution) -->
  <path d="M 153 100 L 197 100 L 197 185 C 197 195, 153 195, 153 185 Z" fill="#3B82F6" fill-opacity="0.3" />
  <!-- Test Tube Outline -->
  <path d="M 153 60 L 153 185 C 153 198, 197 198, 197 185 L 197 60" fill="none" stroke="#94A3B8" stroke-width="2" stroke-linecap="round" />
  <!-- Rim Lip -->
  <ellipse cx="175" cy="60" rx="24" ry="4" fill="none" stroke="#94A3B8" stroke-width="2" />

  <!-- Suspension Thread -->
  <path d="M 175 40 L 175 110" fill="none" stroke="#64748B" stroke-width="1.5" />

  <!-- Iron Nail suspended inside solution -->
  <!-- Upper part (Grey / Iron) -->
  <path d="M 172 110 L 178 110 L 178 140 L 172 140 Z" fill="#78716C" stroke="#475569" stroke-width="1" />
  <!-- Pointed Lower part inside solution (Coated Brown with Copper) -->
  <path d="M 172 140 L 178 140 L 178 170 L 175 178 L 172 170 Z" fill="#B45309" stroke="#78350F" stroke-width="1" />

  <!-- Text Labels -->
  <text x="195" y="35" fill="#94A3B8" font-family="sans-serif" font-size="10" font-weight="bold">Thread</text>
  <path d="M 190 35 Q 178 35, 176 43" fill="none" stroke="#94A3B8" stroke-width="1" />

  <text x="50" y="80" fill="#94A3B8" font-family="sans-serif" font-size="10" font-weight="bold">Test Tube</text>
  <path d="M 98 77 Q 130 77, 150 77" fill="none" stroke="#94A3B8" stroke-width="1" />

  <text x="20" y="125" fill="#94A3B8" font-family="sans-serif" font-size="10" font-weight="bold">Iron Nail</text>
  <path d="M 68 122 Q 120 122, 168 122" fill="none" stroke="#94A3B8" stroke-width="1" />

  <text x="15" y="155" fill="#94A3B8" font-family="sans-serif" font-size="10" font-weight="bold">Copper Sulphate Solution</text>
  <text x="15" y="167" fill="#3B82F6" font-family="sans-serif" font-size="8" font-weight="bold">(Blue solution)</text>
  <path d="M 135 152 Q 148 152, 158 152" fill="none" stroke="#94A3B8" stroke-width="1" />

  <text x="210" y="155" fill="#B45309" font-family="sans-serif" font-size="10" font-weight="bold">Brown Copper Deposit</text>
  <path d="M 205 152 Q 190 152, 180 152" fill="none" stroke="#94A3B8" stroke-width="1" />
</svg>
